# xmcd
# Copyright (C) 1995-1998 Ti Kan
#
# Track frame offsets:
#       150
#       22340
#       40549
#       59552
#       81289
#       97475
#       120996
#       140191
#       161089
#
# Disc length: 2462 seconds
#
# Revision: 0
# Processed by: cddbd v1.5.2PL0 Copyright (c) Steve Scherf et al.
# Submitted via: CD-Transfer v1.0
#
DISCID=83099c09
DTITLE=Thom Yorke - The Eraser
DYEAR=06
DGENRE=
TTITLE0=The Eraser
TTITLE1=Analyse
TTITLE2=The Clock
TTITLE3=Black Swan
TTITLE4=Skip Divided
TTITLE5=Atoms For Peace
TTITLE6=And It Rained All Night
TTITLE7=Harrowdown Hill
TTITLE8=Cymbal Rush
EXTD=
EXTT0=
EXTT1=
EXTT2=
EXTT3=
EXTT4=
EXTT5=
EXTT6=
EXTT7=
EXTT8=
PLAYORDER=
